<?xml version="1.0" encoding="utf-8"?>
<!-- Generator: Adobe Illustrator 22.1.0, SVG Export Plug-In . SVG Version: 6.00 Build 0)  -->
<svg version="1.1" id="Слой_1" xmlns="http://www.w3.org/2000/svg" xmlns:xlink="http://www.w3.org/1999/xlink" x="0px" y="0px"
	 viewBox="0 0 476.6 475.8" style="enable-background:new 0 0 476.6 475.8;" xml:space="preserve">
<g>
	<path fill="#ffffff" d="M476.5,238.2c0,29.5,0.3,59-0.1,88.5c-0.3,22.8-2.2,45.5-7.3,67.9c-9.5,41.9-35.7,65.9-77.3,74.5
		c-24.9,5.2-50.2,6.5-75.5,6.6c-52,0.2-104,0.2-156,0c-24.8-0.1-49.6-1.5-74.1-6.3c-43.6-8.5-70.3-33.9-79.5-77.7
		c-4.7-22.6-6.5-45.5-6.6-68.5c-0.2-56.8-0.2-113.7,0-170.5c0.1-24.3,2-48.6,7.5-72.4c9.4-40.5,34.5-65.1,75-73
		c19-3.7,38.6-6.5,57.9-6.8C205.7-0.3,270.9,0,336,0.4c21.3,0.1,42.5,2.7,63.3,8c39.4,10,61.8,35.8,70.3,74.8
		c4.7,21.8,6.5,43.8,6.7,66C476.7,178.8,476.5,208.5,476.5,238.2z M265.8,197.5C265.8,197.5,265.8,197.5,265.8,197.5
		c0-11.8,0.1-23.7-0.1-35.5c-0.1-8.3-3.1-11.1-11.3-11.1c-11.3,0-22.7,0-34,0c-6.5,0-13-0.2-19.5,0.1c-8,0.3-11.3,7-6.9,13.7
		c0.7,1.1,1.6,2.2,2.4,3.2c6.6,7.7,9.4,16.7,9.3,26.8c0,16.8,0,33.7,0,50.5c0,2.3-0.1,4.7-0.7,6.9c-1.1,4.8-4.3,6.5-8.5,4
		c-3.5-2.1-6.9-4.8-9.5-7.9c-17-19.6-28.2-42.7-38.2-66.4c-3-7.1-5.4-14.3-8.2-21.5c-2.3-5.7-6.3-9.3-12.8-9.3
		c-12.5,0-25-0.1-37.5,0.1c-8.2,0.1-11.7,4.1-10.4,12.2c1,6.2,2.5,12.4,4.5,18.4c12.3,36.9,31.8,70,54.9,101
		c16.8,22.4,37.9,39.7,64.3,50c15.7,6.1,31.9,8.4,48.6,6.5c10.8-1.2,13.6-4.5,13.7-15.1c0-10,0-20,0-30c0.1-9.9,4.3-13,13.8-9.9
		c2.7,0.9,5.4,2,7.6,3.6c5.8,4.2,11.8,8.3,16.8,13.3c10.4,10.1,20.2,20.8,30.2,31.3c4.9,5.1,10.6,7.7,17.8,7.5
		c10.8-0.3,21.7,0,32.5-0.1c12.1-0.2,16.7-6.7,11.3-17.6c-3.7-7.4-8.3-14.6-13.6-20.8c-11.4-13.3-23.5-25.9-35.4-38.7
		c-7.9-8.5-7.9-11.3-1.6-20.8c10.7-16.1,21.4-32.2,31.4-48.7c5.3-8.8,9.8-18.2,13.4-27.8c3.7-9.8,0.1-14.2-10.4-14.3
		c-10.7-0.1-21.3,0.3-32-0.1c-9.6-0.4-15.3,3.7-19.2,12.6c-10.2,23.6-22.6,46.1-39.4,65.8c-3.5,4.1-7.7,7.9-12.1,11.1
		c-5.9,4.2-10.1,2-11.1-5.2c-0.2-1.5-0.1-3-0.1-4.5C265.8,219.5,265.8,208.5,265.8,197.5z"/>
</g>
</svg>
