<?xml version="1.0" encoding="utf-8"?>
<!-- Generator: Adobe Illustrator 22.1.0, SVG Export Plug-In . SVG Version: 6.00 Build 0)  -->
<svg version="1.1" id="Слой_1" xmlns="http://www.w3.org/2000/svg" xmlns:xlink="http://www.w3.org/1999/xlink" x="0px" y="0px"
	 viewBox="0 0 652.9 652.9" style="enable-background:new 0 0 652.9 652.9;" xml:space="preserve">
<style type="text/css">
	.st0{fill:#000;}
</style>
<g>
	<path class="st0" d="M181.1,538.7c-33.5,33.5-66.9,67-100.4,100.4c-14,14-34.5,17.6-52.7,9.7C10.5,641.2-0.5,623.5,0.2,604
		c0.5-12.9,5.8-23.7,14.9-32.8c54.8-54.8,109.6-109.6,164.4-164.4c11.7-11.7,23.3-23.4,35-35c17.9-17.7,45.5-19.2,64.1-3.6
		c19,15.9,22.5,43.1,8,64c-1.9,2.7-4.2,5.1-6.6,7.5C247.1,472.8,214.1,505.8,181.1,538.7z"/>
	<path class="st0" d="M538.5,181.3c-33.3,33.3-66.6,66.7-100.1,100c-23.3,23.2-61.1,17.1-76-12c-9-17.7-5.5-39.9,9.1-54.5
		c24.3-24.5,48.8-48.8,73.1-73.2c42.4-42.4,84.8-84.9,127.3-127.2c19.2-19.2,49-19.1,67.7-0.1c18,18.3,17.9,47.8-0.4,66.2
		c-31.6,31.8-63.4,63.4-95.1,95.1C542.3,177.5,540.4,179.4,538.5,181.3z"/>
</g>
<g>
	<path class="st0" d="M538.8,472c33.5,33.5,67,66.9,100.4,100.4c14,14,17.6,34.5,9.7,52.7c-7.6,17.4-25.3,28.5-44.8,27.8
		c-12.9-0.5-23.7-5.8-32.8-14.9c-54.8-54.8-109.6-109.6-164.4-164.4c-11.7-11.7-23.4-23.3-35-35c-17.7-17.9-19.2-45.5-3.6-64.1
		c15.9-19,43.1-22.5,64-8c2.7,1.9,5.1,4.2,7.5,6.6C472.8,406,505.8,439,538.8,472z"/>
	<path class="st0" d="M181.3,114.5c33.3,33.3,66.7,66.6,100,100.1c23.2,23.3,17.1,61.1-12,76c-17.7,9-39.9,5.5-54.5-9.1
		c-24.5-24.3-48.8-48.8-73.2-73.1C99.2,165.9,56.7,123.6,14.4,81.1c-19.2-19.2-19.1-49-0.1-67.7c18.3-18,47.8-17.9,66.2,0.4
		c31.8,31.6,63.4,63.4,95.1,95.1C177.5,110.7,179.4,112.6,181.3,114.5z"/>
</g>
</svg>
