<?xml version="1.0" encoding="utf-8"?>
<!-- Generator: Adobe Illustrator 22.1.0, SVG Export Plug-In . SVG Version: 6.00 Build 0)  -->
<svg version="1.1" id="Слой_1" xmlns="http://www.w3.org/2000/svg" xmlns:xlink="http://www.w3.org/1999/xlink" x="0px" y="0px"
	 viewBox="0 0 174.8 137.3" style="enable-background:new 0 0 174.8 137.3;" xml:space="preserve">
<style type="text/css">
	.st0{fill:#FFFFFF;}
</style>
<g>
	<path class="st0" d="M158.1,42.3c-15.2,10.5-30.5,21.1-45.6,31.7c-6.3,4.4-17.1,13.4-25,13.4h-0.1h-0.1c-7.9,0-18.6-9-25-13.4
		C47.2,63.4,31.9,52.9,16.8,42.3C9.9,37.6,0,26.6,0,17.8C0,8.2,5.2,0,15.6,0h143.6c8.5,0,15.6,7,15.6,15.6
		C174.8,26.5,166.7,36.4,158.1,42.3z M174.8,121.7c0,8.6-7,15.6-15.6,15.6H15.6c-8.6,0-15.6-7-15.6-15.6V44.3c2.9,3.2,6.2,6,9.9,8.5
		c16.2,11,32.6,22,48.5,33.6c8.2,6,18.3,13.5,29,13.5h0.1h0.1c10.6,0,20.8-7.4,29-13.5c15.9-11.5,32.3-22.6,48.6-33.6
		c3.5-2.4,6.8-5.3,9.8-8.5V121.7z"/>
</g>
</svg>
