<?xml version="1.0" encoding="utf-8"?>
<!-- Generator: Adobe Illustrator 22.1.0, SVG Export Plug-In . SVG Version: 6.00 Build 0)  -->
<svg version="1.1" id="Слой_1" xmlns="http://www.w3.org/2000/svg" xmlns:xlink="http://www.w3.org/1999/xlink" x="0px" y="0px"
	 viewBox="0 0 884.5 536.5" style="enable-background:new 0 0 884.5 536.5;" xml:space="preserve">
<style type="text/css">
	.st0{fill:#FFFFFF;}
</style>
<g>
	<path class="st0" d="M441.7,94.5c-130.7,0-261.3,0-392,0C27.4,94.5,9.8,82.6,2.8,63C-7.8,33.6,13.2,2,44.6,0.2
		C46.8,0,48.9,0,51.1,0c260.8,0,521.6,0,782.4,0c20,0,35.7,7.5,45.4,25.4c16.2,30.1-5.1,67.3-39.3,69c-2.7,0.1-5.3,0.1-8,0.1
		C701.6,94.5,571.7,94.5,441.7,94.5z"/>
	<path class="st0" d="M442.1,536.6c-130.8,0-261.6,0-392.5,0c-22,0-39.5-11.7-46.7-31.1c-10.8-29,9.8-60.9,40.8-63.1
		c2.8-0.2,5.7-0.2,8.5-0.2c260.1,0,520.3,0,780.4-0.1c13.7,0,26,3.1,36.4,12.5c14.2,12.9,19.2,33.3,12.5,51.2
		c-6.6,17.8-23.9,30.4-43,30.6c-17.5,0.3-35,0.1-52.5,0.1C671.4,536.6,556.7,536.6,442.1,536.6z"/>
	<path class="st0" d="M189.3,315.5c-47.3,0-94.7,0.1-142,0c-19.8,0-36.9-12-44.1-30.4c-6.9-17.7-2.2-38.1,12.1-51.3
		c9.5-8.8,20.9-12.7,33.8-12.7c77.5,0,155,0,232.5,0c16.5,0,33-0.1,49.5,0c25.1,0.1,45.7,18.6,47.8,42.8
		c2.2,24.7-14.6,46.4-39.6,50.9c-3.2,0.6-6.6,0.7-9.9,0.7C282.6,315.6,235.9,315.5,189.3,315.5z"/>
	<path class="st0" d="M694.8,315.5c-47.2,0-94.3,0.1-141.5,0c-32.9-0.1-55.3-31.1-45.2-62.2c6.1-18.9,24.3-32.1,44.9-32.1
		c34.5-0.1,69,0,103.5,0c60,0,120-0.1,180,0c27.2,0,48.2,21.1,47.9,47.8c-0.2,25.7-21.2,46.5-47.1,46.6c-44.8,0.1-89.7,0-134.5,0
		C700.1,315.5,697.5,315.5,694.8,315.5z"/>
</g>
</svg>
