<?xml version="1.0" encoding="utf-8"?>
<!-- Generator: Adobe Illustrator 22.1.0, SVG Export Plug-In . SVG Version: 6.00 Build 0)  -->
<svg version="1.1" id="Слой_1" xmlns="http://www.w3.org/2000/svg" xmlns:xlink="http://www.w3.org/1999/xlink" x="0px" y="0px"
	 viewBox="0 0 159.5 159.5" style="enable-background:new 0 0 159.5 159.5;" xml:space="preserve">
<style type="text/css">
	.st0{fill:#FFFFFF;}
</style>
<g>
	<path class="st0" d="M156,141.7c-2.4,5.6-8.7,9.2-13.8,12c-6.7,3.6-13.5,5.8-21.1,5.8c-10.5,0-20.1-4.3-29.7-7.8
		c-6.9-2.5-13.6-5.6-19.8-9.4c-19.3-11.9-42.5-35.1-54.4-54.4c-3.9-6.2-6.9-12.9-9.4-19.8C4.3,58.5,0,48.9,0,38.4
		C0,30.8,2.2,24,5.8,17.3c2.8-5.1,6.5-11.4,12-13.8C21.5,1.8,29.5,0,33.5,0c0.8,0,1.6,0,2.4,0.3c2.4,0.8,4.9,6.3,6,8.6
		c3.6,6.5,7.1,13,10.9,19.4c1.8,2.9,5.2,6.6,5.2,10.1c0,6.9-20.5,17-20.5,23.1c0,3.1,2.8,7,4.4,9.7c11.4,20.6,25.7,34.9,46.3,46.3
		c2.7,1.6,6.7,4.4,9.7,4.4c6.1,0,16.2-20.5,23.1-20.5c3.5,0,7.1,3.4,10.1,5.2c6.3,3.7,12.9,7.3,19.4,10.9c2.3,1.1,7.8,3.6,8.6,6
		c0.3,0.8,0.3,1.6,0.3,2.4C159.5,130.1,157.7,138,156,141.7z"/>
</g>
</svg>
